<svg width="90" height="90" viewBox="0 0 90 90" fill="none" xmlns="http://www.w3.org/2000/svg">
<circle cx="45" cy="45" r="45" fill="white"/>
<path d="M73.1859 30.218C71.6121 24.4195 65.5816 18.3891 59.7832 16.8152C56.2289 15.9281 51.4652 15.0152 45 15C38.5359 15.0164 33.7723 15.9281 30.218 16.8152C24.4195 18.3902 18.3891 24.4195 16.8152 30.218C15.9281 33.7723 15.0164 38.5359 15 45C15.0164 51.4652 15.9281 56.2289 16.8152 59.7832C18.3891 65.5816 24.4195 71.6109 30.218 73.1859C33.7723 74.073 38.5383 74.9848 45 75.0012C51.4652 74.9848 56.2289 74.073 59.7832 73.1859C65.5816 71.6109 71.6121 65.5816 73.1859 59.7832C74.073 56.2289 74.9848 51.4629 75.0012 45C74.9848 38.5359 74.073 33.7723 73.1859 30.218Z" fill="#B3F0B4" fill-opacity="0.3"/>
<path d="M44.9999 25.1123C41.0662 25.1123 37.2208 26.2788 33.95 28.4643C30.6793 30.6498 28.13 33.7561 26.6247 37.3904C25.1194 41.0247 24.7256 45.0238 25.4931 48.882C26.2606 52.7401 28.155 56.284 30.9366 59.0655C33.7183 61.847 37.2623 63.7411 41.1205 64.5084C44.9786 65.2757 48.9777 64.8817 52.6119 63.3761C56.2462 61.8706 59.3523 59.3212 61.5376 56.0503C63.7229 52.7794 64.8892 48.9339 64.889 45.0002C64.889 42.3884 64.3745 39.8021 63.375 37.3892C62.3755 34.9762 60.9104 32.7837 59.0635 30.9369C57.2166 29.0901 55.0241 27.6252 52.611 26.6258C50.198 25.6265 47.6117 25.1122 44.9999 25.1123Z" fill="url(#paint0_linear_6330_2051)"/>
<path d="M50.62 43.7501C50.19 43.7501 49.85 43.4001 49.85 42.9801C49.85 42.6101 49.48 41.8401 48.86 41.1701C48.25 40.5201 47.58 40.1401 47.02 40.1401C46.59 40.1401 46.25 39.7901 46.25 39.3701C46.25 38.9501 46.6 38.6001 47.02 38.6001C48.02 38.6001 49.07 39.1401 49.99 40.1101C50.85 41.0201 51.4 42.1501 51.4 42.9701C51.4 43.4001 51.05 43.7501 50.62 43.7501Z" fill="url(#paint1_linear_6330_2051)"/>
<path d="M54.2298 43.75C53.7998 43.75 53.4598 43.4 53.4598 42.98C53.4598 39.43 50.5698 36.55 47.0298 36.55C46.5998 36.55 46.2598 36.2 46.2598 35.78C46.2598 35.36 46.5998 35 47.0198 35C51.4198 35 54.9998 38.58 54.9998 42.98C54.9998 43.4 54.6498 43.75 54.2298 43.75Z" fill="url(#paint2_linear_6330_2051)"/>
<path d="M44.05 47.95L42.2 49.8C41.81 50.19 41.19 50.19 40.79 49.81C40.68 49.7 40.57 49.6 40.46 49.49C39.43 48.45 38.5 47.36 37.67 46.22C36.85 45.08 36.19 43.94 35.71 42.81C35.24 41.67 35 40.58 35 39.54C35 38.86 35.12 38.21 35.36 37.61C35.6 37 35.98 36.44 36.51 35.94C37.15 35.31 37.85 35 38.59 35C38.87 35 39.15 35.06 39.4 35.18C39.66 35.3 39.89 35.48 40.07 35.74L42.39 39.01C42.57 39.26 42.7 39.49 42.79 39.71C42.88 39.92 42.93 40.13 42.93 40.32C42.93 40.56 42.86 40.8 42.72 41.03C42.59 41.26 42.4 41.5 42.16 41.74L41.4 42.53C41.29 42.64 41.24 42.77 41.24 42.93C41.24 43.01 41.25 43.08 41.27 43.16C41.3 43.24 41.33 43.3 41.35 43.36C41.53 43.69 41.84 44.12 42.28 44.64C42.73 45.16 43.21 45.69 43.73 46.22C43.83 46.32 43.94 46.42 44.04 46.52C44.44 46.91 44.45 47.55 44.05 47.95Z" fill="url(#paint3_linear_6330_2051)"/>
<path d="M54.9701 51.33C54.9701 51.61 54.9201 51.9 54.8201 52.18C54.7901 52.26 54.7601 52.34 54.7201 52.42C54.5501 52.78 54.3301 53.12 54.0401 53.44C53.5501 53.98 53.0101 54.37 52.4001 54.62C52.3901 54.62 52.3801 54.63 52.3701 54.63C51.7801 54.87 51.1401 55 50.4501 55C49.4301 55 48.3401 54.76 47.1901 54.27C46.0401 53.78 44.8901 53.12 43.7501 52.29C43.3601 52 42.9701 51.71 42.6001 51.4L45.8701 48.13C46.1501 48.34 46.4001 48.5 46.6101 48.61C46.6601 48.63 46.7201 48.66 46.7901 48.69C46.8701 48.72 46.9501 48.73 47.0401 48.73C47.2101 48.73 47.3401 48.67 47.4501 48.56L48.2101 47.81C48.4601 47.56 48.7001 47.37 48.9301 47.25C49.1601 47.11 49.3901 47.04 49.6401 47.04C49.8301 47.04 50.0301 47.08 50.2501 47.17C50.4701 47.26 50.7001 47.39 50.9501 47.56L54.2601 49.91C54.5201 50.09 54.7001 50.3 54.8101 50.55C54.9101 50.8 54.9701 51.05 54.9701 51.33Z" fill="url(#paint4_linear_6330_2051)"/>
<defs>
<linearGradient id="paint0_linear_6330_2051" x1="60.6296" y1="55.3811" x2="34.3338" y2="24.6048" gradientUnits="userSpaceOnUse">
<stop stop-color="#0D7E00"/>
<stop offset="0.52" stop-color="#0F8F01"/>
<stop offset="1" stop-color="#97F364"/>
</linearGradient>
<linearGradient id="paint1_linear_6330_2051" x1="51.7371" y1="42.5419" x2="49.6343" y2="38.0617" gradientUnits="userSpaceOnUse">
<stop stop-color="#CBF4B4"/>
<stop offset="0.57" stop-color="white"/>
<stop offset="1" stop-color="white"/>
</linearGradient>
<linearGradient id="paint2_linear_6330_2051" x1="55.5718" y1="41.6972" x2="51.9965" y2="34.0884" gradientUnits="userSpaceOnUse">
<stop stop-color="#CBF4B4"/>
<stop offset="0.57" stop-color="white"/>
<stop offset="1" stop-color="white"/>
</linearGradient>
<linearGradient id="paint3_linear_6330_2051" x1="44.9567" y1="46.5527" x2="37.2428" y2="36.3772" gradientUnits="userSpaceOnUse">
<stop stop-color="#CBF4B4"/>
<stop offset="0.57" stop-color="white"/>
<stop offset="1" stop-color="white"/>
</linearGradient>
<linearGradient id="paint4_linear_6330_2051" x1="55.7797" y1="53.1326" x2="53.4409" y2="45.3888" gradientUnits="userSpaceOnUse">
<stop stop-color="#CBF4B4"/>
<stop offset="0.57" stop-color="white"/>
<stop offset="1" stop-color="white"/>
</linearGradient>
</defs>
</svg>
