<svg width="40" height="40" viewBox="0 0 40 40" fill="none" xmlns="http://www.w3.org/2000/svg">
<path d="M19.9999 26.1667V26.35C19.9999 26.8167 19.6333 27.1833 19.1666 27.1833H4.16659C3.69992 27.1833 3.33325 26.8167 3.33325 26.35V26.1667C3.33325 23.2333 4.06658 22.5 7.03325 22.5H16.2999C19.2666 22.5 19.9999 23.2333 19.9999 26.1667Z" fill="url(#paint0_linear_6061_1145)"/>
<path d="M4.16659 28.8501C3.69992 28.8501 3.33325 29.2168 3.33325 29.6834V31.3501V33.0001C3.33325 35.9334 4.06658 36.6668 7.03325 36.6668H16.2999C19.2666 36.6668 19.9999 35.9334 19.9999 33.0001V31.3501V29.6834C19.9999 29.2168 19.6333 28.8501 19.1666 28.8501H4.16659Z" fill="url(#paint1_linear_6061_1145)"/>
<path d="M36.6667 25C36.6667 31.45 31.45 36.6667 25 36.6667L26.75 33.75" stroke="url(#paint2_linear_6061_1145)" stroke-width="1.5" stroke-linecap="round" stroke-linejoin="round"/>
<path d="M3.33325 14.9999C3.33325 8.54992 8.54992 3.33325 14.9999 3.33325L13.2499 6.24992" stroke="url(#paint3_linear_6061_1145)" stroke-width="1.5" stroke-linecap="round" stroke-linejoin="round"/>
<path d="M30.8333 18.3333C34.9754 18.3333 38.3333 14.9754 38.3333 10.8333C38.3333 6.69112 34.9754 3.33325 30.8333 3.33325C26.6911 3.33325 23.3333 6.69112 23.3333 10.8333C23.3333 14.9754 26.6911 18.3333 30.8333 18.3333Z" fill="url(#paint4_linear_6061_1145)"/>
<defs>
<linearGradient id="paint0_linear_6061_1145" x1="2.42849" y1="23.236" x2="7.14675" y2="32.7679" gradientUnits="userSpaceOnUse">
<stop stop-color="#003716"/>
<stop offset="1" stop-color="#167525"/>
</linearGradient>
<linearGradient id="paint1_linear_6061_1145" x1="2.42849" y1="30.0784" x2="12.1542" y2="41.8506" gradientUnits="userSpaceOnUse">
<stop stop-color="#003716"/>
<stop offset="1" stop-color="#167525"/>
</linearGradient>
<linearGradient id="paint2_linear_6061_1145" x1="24.3667" y1="26.8333" x2="37.0588" y2="34.0384" gradientUnits="userSpaceOnUse">
<stop stop-color="#003716"/>
<stop offset="1" stop-color="#167525"/>
</linearGradient>
<linearGradient id="paint3_linear_6061_1145" x1="2.69992" y1="5.16659" x2="15.3921" y2="12.3717" gradientUnits="userSpaceOnUse">
<stop stop-color="#003716"/>
<stop offset="1" stop-color="#167525"/>
</linearGradient>
<linearGradient id="paint4_linear_6061_1145" x1="22.519" y1="5.69039" x2="38.8375" y2="14.9541" gradientUnits="userSpaceOnUse">
<stop stop-color="#003716"/>
<stop offset="1" stop-color="#167525"/>
</linearGradient>
</defs>
</svg>
