<svg width="90" height="90" viewBox="0 0 90 90" fill="none" xmlns="http://www.w3.org/2000/svg">
<circle cx="45" cy="45" r="45" fill="white"/>
<g clip-path="url(#clip0_6330_2054)">
<path d="M73.1859 30.218C71.6121 24.4195 65.5816 18.3891 59.7832 16.8152C56.2289 15.9281 51.4652 15.0152 45 15C38.5359 15.0164 33.7723 15.9281 30.218 16.8152C24.4195 18.3902 18.3891 24.4195 16.8152 30.218C15.9281 33.7723 15.0164 38.5359 15 45C15.0164 51.4652 15.9281 56.2289 16.8152 59.7832C18.3891 65.5816 24.4195 71.6109 30.218 73.1859C33.7723 74.073 38.5383 74.9848 45 75.0012C51.4652 74.9848 56.2289 74.073 59.7832 73.1859C65.5816 71.6109 71.6121 65.5816 73.1859 59.7832C74.073 56.2289 74.9848 51.4629 75.0012 45C74.9848 38.5359 74.073 33.7723 73.1859 30.218Z" fill="#B3F0B4" fill-opacity="0.3"/>
<path d="M44.9999 25.1123C41.0662 25.1123 37.2208 26.2788 33.95 28.4643C30.6793 30.6498 28.13 33.7561 26.6247 37.3904C25.1194 41.0247 24.7256 45.0238 25.4931 48.882C26.2606 52.7401 28.155 56.284 30.9366 59.0655C33.7183 61.847 37.2623 63.7411 41.1205 64.5084C44.9786 65.2757 48.9777 64.8817 52.6119 63.3761C56.2462 61.8706 59.3523 59.3212 61.5376 56.0503C63.7229 52.7794 64.8892 48.9339 64.889 45.0002C64.889 42.3884 64.3745 39.8021 63.375 37.3892C62.3755 34.9762 60.9104 32.7837 59.0635 30.9369C57.2166 29.0901 55.0241 27.6252 52.611 26.6258C50.198 25.6265 47.6117 25.1122 44.9999 25.1123Z" fill="url(#paint0_linear_6330_2054)"/>
<path d="M53.1739 43.6028C52.3867 44.5572 51.571 45.5442 50.7495 46.5517C50.586 46.7505 50.496 46.9973 50.4941 47.2522C50.4941 48.504 50.4662 49.7537 50.4103 51.0011C50.3726 51.7653 49.5787 52.3744 48.8795 52.1547C47.7322 51.7947 46.5606 51.3955 45.3698 50.9709C45.131 50.8861 44.8691 50.8861 44.6303 50.9709C43.4395 51.3955 42.2679 51.7947 41.1206 52.1547C40.4213 52.3744 39.6274 51.7653 39.5898 51.0011C39.5339 49.7526 39.506 48.5029 39.506 47.2522C39.505 46.9979 39.4165 46.7512 39.2548 46.5517C38.4324 45.5442 37.6168 44.5572 36.8262 43.6028C36.3405 43.0199 36.6772 42.1594 37.456 41.9177C38.7239 41.5299 39.9884 41.1356 41.2437 40.747C41.4973 40.6681 41.7169 40.5096 41.8684 40.2963C42.628 39.2309 43.3758 38.1581 44.1002 37.0927C44.1947 36.9422 44.3271 36.8179 44.485 36.7316C44.6428 36.6454 44.8208 36.6001 45.0017 36.6001C45.1827 36.6001 45.3606 36.6454 45.5184 36.7316C45.6763 36.8179 45.8088 36.9422 45.9032 37.0927C46.6251 38.154 47.3754 39.2309 48.135 40.2963C48.2865 40.5096 48.5062 40.6681 48.7597 40.747C50.0159 41.1356 51.2796 41.5299 52.5475 41.9177C53.3229 42.1594 53.6596 43.0199 53.1739 43.6028Z" fill="url(#paint1_linear_6330_2054)"/>
</g>
<defs>
<linearGradient id="paint0_linear_6330_2054" x1="60.6296" y1="55.3811" x2="34.3338" y2="24.6048" gradientUnits="userSpaceOnUse">
<stop stop-color="#0D7E00"/>
<stop offset="0.52" stop-color="#0F8F01"/>
<stop offset="1" stop-color="#97F364"/>
</linearGradient>
<linearGradient id="paint1_linear_6330_2054" x1="50.7352" y1="51.1391" x2="39.5532" y2="39.6691" gradientUnits="userSpaceOnUse">
<stop stop-color="#FFDDCE"/>
<stop offset="0.57" stop-color="white"/>
<stop offset="1" stop-color="white"/>
</linearGradient>
<clipPath id="clip0_6330_2054">
<rect width="60" height="60" fill="white" transform="translate(15 15)"/>
</clipPath>
</defs>
</svg>
