<svg width="40" height="40" viewBox="0 0 40 40" fill="none" xmlns="http://www.w3.org/2000/svg">
<path d="M11.1166 23.3333H6.66659C4.83325 23.3333 3.33325 24.8333 3.33325 26.6666V34.9999C3.33325 35.9166 4.08325 36.6666 4.99992 36.6666H11.1166C12.0333 36.6666 12.7833 35.9166 12.7833 34.9999V24.9999C12.7833 24.0833 12.0333 23.3333 11.1166 23.3333Z" fill="url(#paint0_linear_6061_1155)"/>
<path d="M22.2167 16.6667H17.7667C15.9333 16.6667 14.4333 18.1667 14.4333 20.0001V35.0001C14.4333 35.9167 15.1833 36.6667 16.1 36.6667H23.8833C24.8 36.6667 25.55 35.9167 25.55 35.0001V20.0001C25.55 18.1667 24.0667 16.6667 22.2167 16.6667Z" fill="url(#paint1_linear_6061_1155)"/>
<path d="M33.3332 28.3333H28.8832C27.9666 28.3333 27.2166 29.0833 27.2166 29.9999V34.9999C27.2166 35.9166 27.9666 36.6666 28.8832 36.6666H34.9999C35.9166 36.6666 36.6666 35.9166 36.6666 34.9999V31.6666C36.6666 29.8333 35.1666 28.3333 33.3332 28.3333Z" fill="url(#paint2_linear_6061_1155)"/>
<path d="M25.0167 8.08322C25.5334 7.56655 25.7334 6.94989 25.5667 6.41655C25.4001 5.88322 24.8834 5.49989 24.1501 5.38322L22.5501 5.11655C22.4834 5.11655 22.3334 4.99989 22.3001 4.93322L21.4167 3.16655C20.7501 1.81655 19.2334 1.81655 18.5667 3.16655L17.6834 4.93322C17.6667 4.99989 17.5167 5.11655 17.4501 5.11655L15.8501 5.38322C15.1167 5.49989 14.6167 5.88322 14.4334 6.41655C14.2667 6.94989 14.4667 7.56655 14.9834 8.08322L16.2167 9.33322C16.2834 9.38322 16.3334 9.58322 16.3167 9.64989L15.9667 11.1832C15.7001 12.3332 16.1334 12.8499 16.4167 13.0499C16.7001 13.2499 17.3167 13.5166 18.3334 12.9166L19.8334 12.0332C19.9001 11.9832 20.1167 11.9832 20.1834 12.0332L21.6667 12.9166C22.1334 13.1999 22.5167 13.2832 22.8167 13.2832C23.1667 13.2832 23.4167 13.1499 23.5667 13.0499C23.8501 12.8499 24.2834 12.3332 24.0167 11.1832L23.6667 9.64989C23.6501 9.56655 23.7001 9.38322 23.7667 9.33322L25.0167 8.08322Z" fill="url(#paint3_linear_6061_1155)"/>
<defs>
<linearGradient id="paint0_linear_6061_1155" x1="2.82025" y1="25.4285" x2="14.52" y2="30.1358" gradientUnits="userSpaceOnUse">
<stop stop-color="#003716"/>
<stop offset="1" stop-color="#167525"/>
</linearGradient>
<linearGradient id="paint1_linear_6061_1155" x1="13.8299" y1="19.8096" x2="28.3731" y2="24.3985" gradientUnits="userSpaceOnUse">
<stop stop-color="#003716"/>
<stop offset="1" stop-color="#167525"/>
</linearGradient>
<linearGradient id="paint2_linear_6061_1155" x1="26.7036" y1="29.6428" x2="36.3144" y2="35.8298" gradientUnits="userSpaceOnUse">
<stop stop-color="#003716"/>
<stop offset="1" stop-color="#167525"/>
</linearGradient>
<linearGradient id="paint3_linear_6061_1155" x1="13.7654" y1="3.90324" x2="25.9396" y2="10.8869" gradientUnits="userSpaceOnUse">
<stop stop-color="#003716"/>
<stop offset="1" stop-color="#167525"/>
</linearGradient>
</defs>
</svg>
