<svg width="90" height="90" viewBox="0 0 90 90" fill="none" xmlns="http://www.w3.org/2000/svg">
<circle cx="45" cy="45" r="45" fill="white"/>
<path d="M73.1859 30.218C71.6121 24.4195 65.5816 18.3891 59.7832 16.8152C56.2289 15.9281 51.4652 15.0152 45 15C38.5359 15.0164 33.7723 15.9281 30.218 16.8152C24.4195 18.3902 18.3891 24.4195 16.8152 30.218C15.9281 33.7723 15.0164 38.5359 15 45C15.0164 51.4652 15.9281 56.2289 16.8152 59.7832C18.3891 65.5816 24.4195 71.6109 30.218 73.1859C33.7723 74.073 38.5383 74.9848 45 75.0012C51.4652 74.9848 56.2289 74.073 59.7832 73.1859C65.5816 71.6109 71.6121 65.5816 73.1859 59.7832C74.073 56.2289 74.9848 51.4629 75.0012 45C74.9848 38.5359 74.073 33.7723 73.1859 30.218Z" fill="#B3F0B4" fill-opacity="0.3"/>
<path d="M44.9999 25.1123C41.0662 25.1123 37.2208 26.2788 33.95 28.4643C30.6793 30.6498 28.13 33.7561 26.6247 37.3904C25.1194 41.0247 24.7256 45.0238 25.4931 48.882C26.2606 52.7401 28.155 56.284 30.9366 59.0655C33.7183 61.847 37.2623 63.7411 41.1205 64.5084C44.9786 65.2757 48.9777 64.8817 52.6119 63.3761C56.2462 61.8706 59.3523 59.3212 61.5376 56.0503C63.7229 52.7794 64.8892 48.9339 64.889 45.0002C64.889 42.3884 64.3745 39.8021 63.375 37.3892C62.3755 34.9762 60.9104 32.7837 59.0635 30.9369C57.2166 29.0901 55.0241 27.6252 52.611 26.6258C50.198 25.6265 47.6117 25.1122 44.9999 25.1123Z" fill="url(#paint0_linear_6330_2052)"/>
<path d="M53.9098 44.1198V39.7298C53.9098 38.9098 53.2898 37.9798 52.5198 37.6698L46.9498 35.3898C45.6998 34.8798 44.2898 34.8798 43.0398 35.3898L37.4698 37.6698C36.7098 37.9798 36.0898 38.9098 36.0898 39.7298V44.1198C36.0898 49.0098 39.6398 53.5898 44.4898 54.9298C44.8198 55.0198 45.1798 55.0198 45.5098 54.9298C50.3598 53.5898 53.9098 49.0098 53.9098 44.1198ZM45.7498 45.8698V48.4998C45.7498 48.9098 45.4098 49.2498 44.9998 49.2498C44.5898 49.2498 44.2498 48.9098 44.2498 48.4998V45.8698C43.2398 45.5498 42.4998 44.6098 42.4998 43.4998C42.4998 42.1198 43.6198 40.9998 44.9998 40.9998C46.3798 40.9998 47.4998 42.1198 47.4998 43.4998C47.4998 44.6198 46.7598 45.5498 45.7498 45.8698Z" fill="url(#paint1_linear_6330_2052)"/>
<defs>
<linearGradient id="paint0_linear_6330_2052" x1="60.6296" y1="55.3811" x2="34.3338" y2="24.6048" gradientUnits="userSpaceOnUse">
<stop stop-color="#0D7E00"/>
<stop offset="0.52" stop-color="#0F8F01"/>
<stop offset="1" stop-color="#97F364"/>
</linearGradient>
<linearGradient id="paint1_linear_6330_2052" x1="55.0762" y1="50.3076" x2="46.3282" y2="33.6924" gradientUnits="userSpaceOnUse">
<stop stop-color="#CBF4B4"/>
<stop offset="0.57" stop-color="white"/>
<stop offset="1" stop-color="white"/>
</linearGradient>
</defs>
</svg>
