<svg width="90" height="90" viewBox="0 0 90 90" fill="none" xmlns="http://www.w3.org/2000/svg">
<circle cx="45" cy="45" r="45" fill="white"/>
<path d="M73.1848 30.2177C71.611 24.4193 65.5807 18.389 59.7823 16.8152C56.2281 15.9281 51.4645 15.0152 44.9994 15C38.5355 15.0164 33.7719 15.9281 30.2177 16.8152C24.4193 18.3902 18.389 24.4193 16.8152 30.2177C15.9281 33.7719 15.0164 38.5355 15 44.9994C15.0164 51.4645 15.9281 56.2281 16.8152 59.7823C18.389 65.5807 24.4193 71.6098 30.2177 73.1848C33.7719 74.0719 38.5378 74.9836 44.9994 75C51.4645 74.9836 56.2281 74.0719 59.7823 73.1848C65.5807 71.6098 71.611 65.5807 73.1848 59.7823C74.0719 56.2281 74.9836 51.4622 75 44.9994C74.9836 38.5355 74.0719 33.7719 73.1848 30.2177Z" fill="#B3F0B4" fill-opacity="0.3"/>
<path d="M64.6208 36.8667C64.4556 34.428 62.1693 31.6578 59.699 31.2547C49.9328 29.5918 40.0834 34.0601 30.1449 33.1882C27.6981 32.9984 25.5501 34.421 25.3755 36.8667C25.0181 42.2825 25.0181 47.7161 25.3755 53.132C25.5407 55.5718 27.827 58.342 30.2973 58.7451C40.0635 60.408 49.9129 55.9397 59.8514 56.8116C62.2982 57.0014 64.4462 55.5788 64.6208 53.132C64.9782 47.7161 64.9782 42.2825 64.6208 36.8667Z" fill="url(#paint0_linear_6330_2053)"/>
<path d="M44.7519 52.1993L41.3994 46.3943V45.0263H42.5169C42.9639 45.0263 43.355 44.9647 43.6903 44.8414C44.0379 44.7058 44.3235 44.5148 44.547 44.2683C44.7829 44.0218 44.9444 43.726 45.0313 43.3809H41.3994V42.0129H45.0126C44.9381 41.6925 44.8078 41.409 44.6215 41.1625C44.4477 40.916 44.2118 40.725 43.9138 40.5894C43.6282 40.4415 43.2805 40.3676 42.8708 40.3676H41.3994V38.9995H49.7992V40.3676H46.8751C47.0862 40.6017 47.2601 40.8544 47.3966 41.1255C47.5456 41.3967 47.645 41.6925 47.6946 42.0129H49.7992V43.3809H47.7319C47.6077 44.293 47.2538 45.0078 46.6703 45.5254C46.0867 46.0307 45.3355 46.3758 44.4166 46.5607L48.0671 52.1993H44.7519Z" fill="url(#paint1_linear_6330_2053)"/>
<defs>
<linearGradient id="paint0_linear_6330_2053" x1="60.6292" y1="52.3686" x2="43.8691" y2="24.7352" gradientUnits="userSpaceOnUse">
<stop stop-color="#0D7E00"/>
<stop offset="0.52" stop-color="#0F8F01"/>
<stop offset="1" stop-color="#97F364"/>
</linearGradient>
<linearGradient id="paint1_linear_6330_2053" x1="50.349" y1="49.1025" x2="43.6553" y2="40.0269" gradientUnits="userSpaceOnUse">
<stop stop-color="#CBF4B4"/>
<stop offset="0.57" stop-color="white"/>
<stop offset="1" stop-color="white"/>
</linearGradient>
</defs>
</svg>
