<svg width="40" height="40" viewBox="0 0 40 40" fill="none" xmlns="http://www.w3.org/2000/svg">
<path d="M30.9001 6.86661L21.7334 3.43328C20.7834 3.08328 19.2334 3.08328 18.2834 3.43328L9.11675 6.86661C7.35008 7.53328 5.91675 9.59994 5.91675 11.4833V24.9833C5.91675 26.3333 6.80008 28.1166 7.88341 28.9166L17.0501 35.7666C18.6667 36.9833 21.3167 36.9833 22.9334 35.7666L32.1001 28.9166C33.1834 28.0999 34.0667 26.3333 34.0667 24.9833V11.4833C34.0834 9.59994 32.6501 7.53328 30.9001 6.86661ZM25.8001 16.1999L18.6334 23.3666C18.3834 23.6166 18.0667 23.7333 17.7501 23.7333C17.4334 23.7333 17.1167 23.6166 16.8667 23.3666L14.2001 20.6666C13.7167 20.1833 13.7167 19.3833 14.2001 18.8999C14.6834 18.4166 15.4834 18.4166 15.9667 18.8999L17.7667 20.6999L24.0501 14.4166C24.5334 13.9333 25.3334 13.9333 25.8167 14.4166C26.3001 14.8999 26.3001 15.7166 25.8001 16.1999Z" fill="url(#paint0_linear_6061_1126)"/>
<defs>
<linearGradient id="paint0_linear_6061_1126" x1="4.3886" y1="8.43637" x2="37.379" y2="24.1697" gradientUnits="userSpaceOnUse">
<stop stop-color="#003716"/>
<stop offset="1" stop-color="#167525"/>
</linearGradient>
</defs>
</svg>
